<svg width="45" height="42" viewBox="0 0 45 42" fill="none" xmlns="http://www.w3.org/2000/svg">
<path fill-rule="evenodd" clip-rule="evenodd" d="M2.64375 10.8853C1.83473 11.368 1.16761 12.0393 0.705131 12.8359C0.242648 13.6326 -2.25006e-06 14.5284 0 15.4392V36.6298C0 38.0541 0.592632 39.42 1.64752 40.4271C2.70242 41.4342 4.13316 42 5.625 42H39.375C40.8668 42 42.2976 41.4342 43.3525 40.4271C44.4074 39.42 45 38.0541 45 36.6298V15.4392C45 14.5284 44.7574 13.6326 44.2949 12.8359C43.8324 12.0393 43.1653 11.368 42.3562 10.8853L25.4813 0.816276C24.5873 0.282844 23.5542 0 22.5 0C21.4458 0 20.4127 0.282844 19.5187 0.816276L2.64375 10.8853ZM9.99844 17.3913C9.69114 17.1956 9.34649 17.0596 8.98414 16.991C8.62179 16.9225 8.24886 16.9228 7.88662 16.9918C7.52438 17.0609 7.17994 17.1974 6.87297 17.3936C6.56599 17.5897 6.30249 17.8417 6.0975 18.135C5.89252 18.4284 5.75006 18.7574 5.67828 19.1034C5.60649 19.4493 5.60678 19.8053 5.67912 20.1512C5.82522 20.8496 6.25596 21.464 6.87656 21.8592L20.9391 30.8086C21.4012 31.103 21.9444 31.2601 22.5 31.2601C23.0556 31.2601 23.5988 31.103 24.0609 30.8086L38.1234 21.8592C38.744 21.464 39.1748 20.8496 39.3209 20.1512C39.467 19.4527 39.3165 18.7275 38.9025 18.135C38.4885 17.5425 37.8449 17.1313 37.1134 16.9918C36.3818 16.8524 35.6222 16.996 35.0016 17.3913L22.5 25.3471L9.99844 17.3913Z" fill="#06365F"/>
</svg>
