<svg width="45" height="45" viewBox="0 0 45 45" fill="none" xmlns="http://www.w3.org/2000/svg">
<path d="M4.5 6.75C4.5 6.15326 4.73705 5.58097 5.15901 5.15901C5.58097 4.73705 6.15326 4.5 6.75 4.5H11.5942C12.1268 4.50025 12.6421 4.68941 13.0483 5.03383C13.4545 5.37826 13.7254 5.85562 13.8127 6.381L15.4778 16.3597C15.5573 16.835 15.4822 17.3232 15.2635 17.7526C15.0447 18.1819 14.694 18.5297 14.2628 18.7448L10.7797 20.484C12.0287 23.5792 13.8889 26.3909 16.249 28.751C18.6091 31.1111 21.4208 32.9713 24.516 34.2202L26.2575 30.7373C26.4724 30.3065 26.8199 29.956 27.2487 29.7373C27.6776 29.5186 28.1654 29.4432 28.6403 29.5223L38.619 31.1873C39.1444 31.2746 39.6217 31.5455 39.9662 31.9517C40.3106 32.3579 40.4998 32.8732 40.5 33.4058V38.25C40.5 38.8467 40.2629 39.419 39.841 39.841C39.419 40.2629 38.8467 40.5 38.25 40.5H33.75C17.595 40.5 4.5 27.405 4.5 11.25V6.75Z" fill="#06365F"/>
</svg>
