<svg width="42" height="45" viewBox="0 0 42 45" fill="none" xmlns="http://www.w3.org/2000/svg">
<path fill-rule="evenodd" clip-rule="evenodd" d="M6.15114 5.45942C10.0894 1.96381 15.4307 0 21.0002 0C26.5697 0 31.9111 1.96381 35.8493 5.45942C39.7875 8.95502 42 13.6961 42 18.6396C42 23.5831 39.7875 28.3242 35.8493 31.8198L21.0002 45L6.15114 31.8198C4.201 30.089 2.65405 28.0342 1.59864 25.7728C0.543218 23.5113 0 21.0874 0 18.6396C0 16.1918 0.543218 13.7679 1.59864 11.5065C2.65405 9.245 4.201 7.1902 6.15114 5.45942ZM21.0002 23.9649C22.5914 23.9649 24.1175 23.4039 25.2426 22.4052C26.3677 21.4065 26.9999 20.052 26.9999 18.6396C26.9999 17.2272 26.3677 15.8727 25.2426 14.874C24.1175 13.8753 22.5914 13.3143 21.0002 13.3143C19.409 13.3143 17.883 13.8753 16.7578 14.874C15.6327 15.8727 15.0006 17.2272 15.0006 18.6396C15.0006 20.052 15.6327 21.4065 16.7578 22.4052C17.883 23.4039 19.409 23.9649 21.0002 23.9649Z" fill="#06365F"/>
</svg>
