<svg width="36" height="37" viewBox="0 0 36 37" fill="none" xmlns="http://www.w3.org/2000/svg">
<path fill-rule="evenodd" clip-rule="evenodd" d="M35.2 18.5C35.2 23.1678 33.3457 27.6445 30.0451 30.9451C26.7444 34.2457 22.2678 36.1 17.6 36.1C12.9322 36.1 8.45556 34.2457 5.15492 30.9451C1.85428 27.6445 0 23.1678 0 18.5C0 13.8322 1.85428 9.35559 5.15492 6.05494C8.45556 2.7543 12.9322 0.900024 17.6 0.900024C22.2678 0.900024 26.7444 2.7543 30.0451 6.05494C33.3457 9.35559 35.2 13.8322 35.2 18.5ZM17.6 11.9C17.2135 11.8996 16.8336 12.0011 16.4988 12.1942C16.1639 12.3873 15.8859 12.6653 15.6926 13C15.553 13.2594 15.3628 13.488 15.1333 13.6725C14.9037 13.8569 14.6394 13.9934 14.3561 14.0738C14.0728 14.1543 13.7763 14.177 13.484 14.1407C13.1918 14.1044 12.9098 14.0098 12.6548 13.8624C12.3998 13.7151 12.177 13.5181 11.9995 13.2831C11.8221 13.0481 11.6936 12.7798 11.6218 12.4942C11.5499 12.2086 11.5362 11.9115 11.5813 11.6205C11.6264 11.3295 11.7295 11.0505 11.8844 10.8C12.6109 9.54187 13.7322 8.55858 15.0745 8.00264C16.4167 7.4467 17.9049 7.34918 19.3082 7.72521C20.7116 8.10124 21.9516 8.92979 22.836 10.0824C23.7205 11.235 24.1999 12.6472 24.2 14.1C24.2004 15.4654 23.7775 16.7973 22.9895 17.9123C22.2015 19.0273 21.0872 19.8706 19.8 20.326V20.7C19.8 21.2835 19.5682 21.8431 19.1556 22.2557C18.7431 22.6682 18.1835 22.9 17.6 22.9C17.0165 22.9 16.4569 22.6682 16.0444 22.2557C15.6318 21.8431 15.4 21.2835 15.4 20.7V18.5C15.4 17.9165 15.6318 17.357 16.0444 16.9444C16.4569 16.5318 17.0165 16.3 17.6 16.3C18.1835 16.3 18.7431 16.0682 19.1556 15.6557C19.5682 15.2431 19.8 14.6835 19.8 14.1C19.8 13.5165 19.5682 12.957 19.1556 12.5444C18.7431 12.1318 18.1835 11.9 17.6 11.9ZM17.6 29.5C18.1835 29.5 18.7431 29.2682 19.1556 28.8557C19.5682 28.4431 19.8 27.8835 19.8 27.3C19.8 26.7165 19.5682 26.157 19.1556 25.7444C18.7431 25.3318 18.1835 25.1 17.6 25.1C17.0165 25.1 16.4569 25.3318 16.0444 25.7444C15.6318 26.157 15.4 26.7165 15.4 27.3C15.4 27.8835 15.6318 28.4431 16.0444 28.8557C16.4569 29.2682 17.0165 29.5 17.6 29.5Z" fill="#06365F"/>
</svg>
