<svg width="36" height="39" viewBox="0 0 36 39" fill="none" xmlns="http://www.w3.org/2000/svg">
<path d="M30.022 32.9809C26.8338 35.8744 22.5096 37.5 18.0007 37.5C13.4918 37.5 9.16764 35.8744 5.97939 32.9809C2.79114 30.0873 1 26.1628 1 22.0707C1 17.9786 2.79114 14.0541 5.97939 11.1605C5.97939 16.928 6.66786 22.0707 15.1675 24.642C15.1675 19.4993 18.0007 4.07134 22.2505 1.5C25.0837 6.64267 26.7015 8.14947 30.0192 11.1605C31.6006 12.5915 32.8547 14.2921 33.7095 16.1644C34.5642 18.0368 35.0028 20.044 35 22.0707C35.003 24.0972 34.5648 26.1043 33.7105 27.9766C32.8563 29.8489 31.6028 31.5496 30.022 32.9809Z" fill="#06365F" stroke="#374151" stroke-width="2" stroke-linecap="round" stroke-linejoin="round"/>
<path d="M11.9915 32.6671C12.7756 33.4039 13.7134 33.9916 14.7504 34.3958C15.7874 34.8001 16.9027 35.0129 18.0313 35.0218C19.1599 35.0307 20.2791 34.8355 21.3237 34.4477C22.3683 34.0598 23.3173 33.487 24.1153 32.7627C24.9134 32.0384 25.5445 31.1772 25.9719 30.2291C26.3992 29.2811 26.6143 28.2653 26.6045 27.2411C26.5947 26.2168 26.3602 25.2046 25.9148 24.2635C25.4693 23.3223 24.8218 22.4711 24.01 21.7595C22.3525 20.2527 21.5423 19.4993 20.1256 16.928C18.0007 18.2136 16.5841 25.9277 16.5841 28.499C11.9915 28.499 9.5011 27.2133 9.5011 27.2133C9.5011 29.1881 10.3312 31.1629 11.9915 32.6671Z" fill="#06365F"/>
</svg>
